<mxfile host="65bd71144e">
    <diagram id="lyV7gF9lxTsv1D2gu8Uh" name="Page-1">
        <mxGraphModel dx="1091" dy="887" grid="0" gridSize="10" guides="1" tooltips="1" connect="1" arrows="1" fold="1" page="1" pageScale="1" pageWidth="850" pageHeight="1100" math="0" shadow="0">
            <root>
                <mxCell id="0"/>
                <mxCell id="1" parent="0"/>
                <mxCell id="6" value="Game of Thrones Glossary" style="text;html=1;strokeColor=none;fillColor=none;align=center;verticalAlign=middle;whiteSpace=wrap;rounded=0;fontSize=19;" parent="1" vertex="1">
                    <mxGeometry x="287" y="37" width="285" height="39" as="geometry"/>
                </mxCell>
                <mxCell id="8" value="SEARCH BAR" style="text;html=1;strokeColor=default;fillColor=none;align=center;verticalAlign=middle;whiteSpace=wrap;rounded=0;fontSize=10;" parent="1" vertex="1">
                    <mxGeometry x="37" y="47" width="149" height="29" as="geometry"/>
                </mxCell>
                <mxCell id="20" value="PICTURE OF CHARACTER" style="rounded=0;whiteSpace=wrap;html=1;fontColor=#9933FF;" parent="1" vertex="1">
                    <mxGeometry x="44" y="160" width="184" height="179" as="geometry"/>
                </mxCell>
                <mxCell id="31" value="HOUSE DROPDOWN" style="rounded=0;whiteSpace=wrap;html=1;fillColor=default;strokeColor=none;fontSize=9;" parent="1" vertex="1">
                    <mxGeometry x="330" y="74" width="199" height="33" as="geometry"/>
                </mxCell>
                <mxCell id="38" value="PICTURE OF CHARACTER" style="rounded=0;whiteSpace=wrap;html=1;fontColor=#9933FF;" parent="1" vertex="1">
                    <mxGeometry x="248" y="160" width="184" height="179" as="geometry"/>
                </mxCell>
                <mxCell id="39" value="PICTURE OF CHARACTER" style="rounded=0;whiteSpace=wrap;html=1;fontColor=#9933FF;" parent="1" vertex="1">
                    <mxGeometry x="452" y="160" width="184" height="179" as="geometry"/>
                </mxCell>
                <mxCell id="40" value="PICTURE OF CHARACTER" style="rounded=0;whiteSpace=wrap;html=1;fontColor=#9933FF;" parent="1" vertex="1">
                    <mxGeometry x="656" y="160" width="184" height="179" as="geometry"/>
                </mxCell>
                <mxCell id="44" value="DETAILS BUTTON" style="rounded=0;whiteSpace=wrap;html=1;" parent="1" vertex="1">
                    <mxGeometry x="677.75" y="297" width="140.5" height="32" as="geometry"/>
                </mxCell>
                <mxCell id="49" value="DETAILS EXPANDER" style="rounded=0;whiteSpace=wrap;html=1;" parent="1" vertex="1">
                    <mxGeometry x="667" y="346" width="160" height="114" as="geometry"/>
                </mxCell>
                <mxCell id="50" value="MUSIC PLAYER&lt;span style=&quot;white-space: pre;&quot;&gt;&#9;&lt;/span&gt;" style="text;html=1;strokeColor=default;fillColor=none;align=center;verticalAlign=middle;whiteSpace=wrap;rounded=1;fontSize=10;glass=0;" vertex="1" parent="1">
                    <mxGeometry x="674" y="74" width="168" height="28.5" as="geometry"/>
                </mxCell>
                <mxCell id="51" value="SOUND TRACK LIST" style="text;html=1;strokeColor=default;fillColor=none;align=center;verticalAlign=middle;whiteSpace=wrap;rounded=1;fontSize=10;glass=0;" vertex="1" parent="1">
                    <mxGeometry x="732" y="47" width="106" height="16.5" as="geometry"/>
                </mxCell>
                <mxCell id="64" value="DETAILS BUTTON" style="rounded=0;whiteSpace=wrap;html=1;" vertex="1" parent="1">
                    <mxGeometry x="473.75" y="297" width="140.5" height="32" as="geometry"/>
                </mxCell>
                <mxCell id="65" value="DETAILS BUTTON" style="rounded=0;whiteSpace=wrap;html=1;" vertex="1" parent="1">
                    <mxGeometry x="269.75" y="297" width="140.5" height="32" as="geometry"/>
                </mxCell>
                <mxCell id="66" value="DETAILS BUTTON" style="rounded=0;whiteSpace=wrap;html=1;" vertex="1" parent="1">
                    <mxGeometry x="64" y="297" width="140.5" height="32" as="geometry"/>
                </mxCell>
                <mxCell id="68" value="DETAILS EXPANDER" style="rounded=0;whiteSpace=wrap;html=1;" vertex="1" parent="1">
                    <mxGeometry x="464" y="346" width="160" height="114" as="geometry"/>
                </mxCell>
                <mxCell id="69" value="DETAILS EXPANDER" style="rounded=0;whiteSpace=wrap;html=1;" vertex="1" parent="1">
                    <mxGeometry x="260" y="346" width="160" height="114" as="geometry"/>
                </mxCell>
                <mxCell id="70" value="DETAILS EXPANDER" style="rounded=0;whiteSpace=wrap;html=1;" vertex="1" parent="1">
                    <mxGeometry x="56" y="346" width="160" height="114" as="geometry"/>
                </mxCell>
                <mxCell id="72" value="PICTURE OF CHARACTER" style="rounded=0;whiteSpace=wrap;html=1;fontColor=#9933FF;" vertex="1" parent="1">
                    <mxGeometry x="37" y="483" width="184" height="179" as="geometry"/>
                </mxCell>
                <mxCell id="73" value="PICTURE OF CHARACTER" style="rounded=0;whiteSpace=wrap;html=1;fontColor=#9933FF;" vertex="1" parent="1">
                    <mxGeometry x="241" y="483" width="184" height="179" as="geometry"/>
                </mxCell>
                <mxCell id="74" value="PICTURE OF CHARACTER" style="rounded=0;whiteSpace=wrap;html=1;fontColor=#9933FF;" vertex="1" parent="1">
                    <mxGeometry x="445" y="483" width="184" height="179" as="geometry"/>
                </mxCell>
                <mxCell id="75" value="PICTURE OF CHARACTER" style="rounded=0;whiteSpace=wrap;html=1;fontColor=#9933FF;" vertex="1" parent="1">
                    <mxGeometry x="649" y="483" width="184" height="179" as="geometry"/>
                </mxCell>
                <mxCell id="76" value="DETAILS BUTTON" style="rounded=0;whiteSpace=wrap;html=1;" vertex="1" parent="1">
                    <mxGeometry x="670.75" y="620" width="140.5" height="32" as="geometry"/>
                </mxCell>
                <mxCell id="77" value="DETAILS EXPANDER" style="rounded=0;whiteSpace=wrap;html=1;" vertex="1" parent="1">
                    <mxGeometry x="660" y="669" width="160" height="114" as="geometry"/>
                </mxCell>
                <mxCell id="78" value="DETAILS BUTTON" style="rounded=0;whiteSpace=wrap;html=1;" vertex="1" parent="1">
                    <mxGeometry x="466.75" y="620" width="140.5" height="32" as="geometry"/>
                </mxCell>
                <mxCell id="79" value="DETAILS BUTTON" style="rounded=0;whiteSpace=wrap;html=1;" vertex="1" parent="1">
                    <mxGeometry x="262.75" y="620" width="140.5" height="32" as="geometry"/>
                </mxCell>
                <mxCell id="80" value="DETAILS BUTTON" style="rounded=0;whiteSpace=wrap;html=1;" vertex="1" parent="1">
                    <mxGeometry x="57" y="620" width="140.5" height="32" as="geometry"/>
                </mxCell>
                <mxCell id="81" value="DETAILS EXPANDER" style="rounded=0;whiteSpace=wrap;html=1;" vertex="1" parent="1">
                    <mxGeometry x="457" y="669" width="160" height="114" as="geometry"/>
                </mxCell>
                <mxCell id="82" value="DETAILS EXPANDER" style="rounded=0;whiteSpace=wrap;html=1;" vertex="1" parent="1">
                    <mxGeometry x="253" y="669" width="160" height="114" as="geometry"/>
                </mxCell>
                <mxCell id="83" value="DETAILS EXPANDER" style="rounded=0;whiteSpace=wrap;html=1;" vertex="1" parent="1">
                    <mxGeometry x="49" y="669" width="160" height="114" as="geometry"/>
                </mxCell>
            </root>
        </mxGraphModel>
    </diagram>
</mxfile>